<svg width="60" height="60" viewBox="0 0 60 60" fill="none" xmlns="http://www.w3.org/2000/svg">
<rect width="60" height="60" rx="10" fill="#1E2836"/>
<path fill-rule="evenodd" clip-rule="evenodd" d="M28.903 9.28575C29.582 8.90475 30.418 8.90475 31.096 9.28575C34.451 11.1688 44.547 16.8368 47.903 18.7198C48.582 19.0998 49 19.8038 49 20.5658C49 24.3318 49 35.6667 49 39.4327C49 40.1947 48.582 40.8987 47.903 41.2797C44.548 43.1627 34.452 48.8307 31.096 50.7137C30.417 51.0947 29.581 51.0947 28.903 50.7137C25.548 48.8307 15.452 43.1627 12.096 41.2797C11.418 40.8987 11 40.1957 11 39.4337C11 35.6677 11 24.3328 11 20.5668C11 19.8048 11.418 19.1008 12.097 18.7198C15.451 16.8368 25.549 11.1688 28.903 9.28575Z" fill="url(#paint0_linear_133_410)"/>
<path fill-rule="evenodd" clip-rule="evenodd" d="M11.304 40.4043C11.038 40.0483 11 39.7103 11 39.2553C11 35.5113 11 24.2413 11 20.4963C11 19.7383 11.417 19.0383 12.094 18.6603C15.437 16.7883 25.499 11.1533 28.842 9.28028C29.519 8.90128 30.436 8.90928 31.113 9.28828C34.456 11.1603 44.484 16.7473 47.827 18.6193C48.097 18.7713 48.303 18.9543 48.487 19.1953L11.304 40.4043Z" fill="url(#paint1_linear_133_410)"/>
<path fill-rule="evenodd" clip-rule="evenodd" d="M30 16C37.727 16 44 22.273 44 30C44 37.727 37.727 44 30 44C22.273 44 16 37.727 16 30C16 22.273 22.273 16 30 16ZM30 23C33.863 23 37 26.136 37 30C37 33.863 33.863 37 30 37C26.137 37 23 33.863 23 30C23 26.136 26.136 23 30 23Z" fill="white"/>
<path fill-rule="evenodd" clip-rule="evenodd" d="M48.4848 19.2051C49.0008 19.6881 48.9908 20.4161 48.9908 20.9891C48.9908 24.7841 48.9588 35.5781 48.9998 39.3731C49.0038 39.7691 48.8728 40.1861 48.6768 40.5001L29.5928 30.0001L48.4848 19.2051Z" fill="url(#paint2_linear_133_410)"/>
<g opacity="0.05">
<path fill-rule="evenodd" clip-rule="evenodd" d="M39 27V29H41V31H39V33H37V31H35V29H37V27H39ZM40 26H39H37H36V27V28H35H34V29V31V32H35H36V33V34H37H39H40V33V32H41H42V31V29V28H41H40V27V26Z" fill="black"/>
<path fill-rule="evenodd" clip-rule="evenodd" d="M46 27V29H48V31H46V33H44V31H42V29H44V27H46ZM47 26H46H44H43V27V28H42H41V29V31V32H42H43V33V34H44H46H47V33V32H48H49V31V29V28H48H47V27V26Z" fill="black"/>
</g>
<g opacity="0.07">
<path fill-rule="evenodd" clip-rule="evenodd" d="M39 27V29H41V31H39V33H37V31H35V29H37V27H39ZM39.5 26.5H39H37H36.5V27V28.5H35H34.5V29V31V31.5H35H36.5V33V33.5H37H39H39.5V33V31.5H41H41.5V31V29V28.5H41H39.5V27V26.5Z" fill="black"/>
<path fill-rule="evenodd" clip-rule="evenodd" d="M46 27V29H48V31H46V33H44V31H42V29H44V27H46ZM46.5 26.5H46H44H43.5V27V28.5H42H41.5V29V31V31.5H42H43.5V33V33.5H44H46H46.5V33V31.5H48H48.5V31V29V28.5H48H46.5V27V26.5Z" fill="black"/>
</g>
<path fill-rule="evenodd" clip-rule="evenodd" d="M39 27H37V29H35V31H37V33H39V31H41V29H39V27Z" fill="white"/>
<path fill-rule="evenodd" clip-rule="evenodd" d="M48 29H46V27H44V29H42V31H44V33H46V31H48V29Z" fill="white"/>
<path opacity="0.05" fill-rule="evenodd" clip-rule="evenodd" d="M30 16C35.128 16 39.602 18.771 42.041 22.887L35.968 26.357C34.737 24.347 32.527 23 30 23C26.136 23 23 26.136 23 30C23 33.863 26.137 37 30 37C32.57 37 34.812 35.608 36.029 33.541L42.161 36.915C39.75 41.142 35.21 44 30 44C22.273 44 16 37.727 16 30C16 22.273 22.273 16 30 16ZM30 15C21.729 15 15 21.729 15 30C15 38.271 21.729 45 30 45C35.367 45 40.36 42.092 43.03 37.41L43.533 36.528L42.643 36.038L36.511 32.664L35.66 32.196L35.167 33.033C34.09 34.863 32.11 36 30 36C26.692 36 24 33.308 24 30C24 26.692 26.692 24 30 24C32.099 24 34.011 25.076 35.115 26.879L35.622 27.707L36.464 27.226L42.537 23.756L43.419 23.252L42.901 22.378C40.205 17.827 35.262 15 30 15Z" fill="black"/>
<path opacity="0.07" fill-rule="evenodd" clip-rule="evenodd" d="M30 16C35.128 16 39.602 18.771 42.041 22.887L35.968 26.357C34.737 24.347 32.527 23 30 23C26.136 23 23 26.136 23 30C23 33.863 26.137 37 30 37C32.57 37 34.812 35.608 36.029 33.541L42.161 36.915C39.75 41.142 35.21 44 30 44C22.273 44 16 37.727 16 30C16 22.273 22.273 16 30 16ZM30 15.5C22.005 15.5 15.5 22.005 15.5 30C15.5 37.995 22.005 44.5 30 44.5C35.188 44.5 40.014 41.688 42.595 37.163L42.847 36.722L42.402 36.477L36.27 33.103L35.845 32.869L35.599 33.287C34.431 35.269 32.286 36.5 30 36.5C26.416 36.5 23.5 33.584 23.5 30C23.5 26.416 26.416 23.5 30 23.5C32.275 23.5 34.346 24.666 35.542 26.618L35.795 27.032L36.216 26.791L42.289 23.321L42.73 23.069L42.471 22.632C39.864 18.233 35.086 15.5 30 15.5Z" fill="black"/>
<defs>
<linearGradient id="paint0_linear_133_410" x1="11" y1="29.9998" x2="49" y2="29.9998" gradientUnits="userSpaceOnUse">
<stop offset="0.002" stop-color="#427FDB"/>
<stop offset="0.397" stop-color="#2668CB"/>
<stop offset="0.763" stop-color="#1358BF"/>
<stop offset="1" stop-color="#0C52BB"/>
</linearGradient>
<linearGradient id="paint1_linear_133_410" x1="11" y1="24.7023" x2="48.487" y2="24.7023" gradientUnits="userSpaceOnUse">
<stop stop-color="#32BDEF"/>
<stop offset="1" stop-color="#1EA2E4"/>
</linearGradient>
<linearGradient id="paint2_linear_133_410" x1="29.5928" y1="29.8521" x2="48.9998" y2="29.8521" gradientUnits="userSpaceOnUse">
<stop stop-color="#2AA4F4"/>
<stop offset="1" stop-color="#007AD9"/>
</linearGradient>
</defs>
</svg>
