<svg width="60" height="60" viewBox="0 0 60 60" fill="none" xmlns="http://www.w3.org/2000/svg">
<g clip-path="url(#clip0_131_390)">
<path d="M10 60C4.47715 60 0 55.5228 0 50V10C0 4.47715 4.47715 0 10 0H50C55.5228 0 60 4.47715 60 10V50C60 55.5228 55.5228 60 50 60H10Z" fill="#FFD600"/>
<path d="M41.0831 45.1047C42.2076 46.8609 43.4296 48.5437 46.0183 48.5437C48.1925 48.5437 49.3333 47.5047 49.3333 46.0672C49.3333 44.3469 48.1535 43.7359 45.7615 42.7344L44.4501 42.1969C40.6655 40.6531 38.1484 38.7188 38.1484 34.6328C38.1484 30.8672 41.1465 28.0016 45.8314 28.0016C49.1675 28.0016 51.5644 29.1125 53.2934 32.0219L49.2081 34.5328C48.3095 32.9891 47.3377 32.3813 45.8314 32.3813C44.2941 32.3813 43.3208 33.3141 43.3208 34.5328C43.3208 36.0391 44.2958 36.6484 46.5464 37.5813L47.8577 38.1187C52.3184 39.9453 54.8339 41.8109 54.8339 46.0047C54.8339 50.5234 51.1224 53 46.1401 53C41.2668 53 38.4994 50.6484 36.9589 47.7375L41.0831 45.1047ZM22.2559 45.2328C23.0781 46.6484 24.3278 47.7375 26.125 47.7375C27.8442 47.7375 28.8339 47.0844 28.8339 44.5453V28H34.25V45.3453C34.25 50.6063 31.0764 53 26.4419 53C22.2542 53 19.2318 50.2719 18 47.7375L22.2559 45.2328Z" fill="#000001"/>
</g>
<defs>
<clipPath id="clip0_131_390">
<rect width="60" height="60" fill="white"/>
</clipPath>
</defs>
</svg>
