<svg width="60" height="60" viewBox="0 0 60 60" fill="none" xmlns="http://www.w3.org/2000/svg">
<rect width="60" height="60" rx="10" fill="#777BB3"/>
<path d="M8.7895 23.5615H15.8915C17.976 23.579 19.4865 24.18 20.423 25.3635C21.3595 26.547 21.6685 28.1635 21.3505 30.213C21.227 31.1495 20.953 32.068 20.529 32.969C20.1225 33.87 19.5575 34.6825 18.833 35.407C17.9495 36.3255 17.0045 36.9085 15.9975 37.156C14.9905 37.4035 13.948 37.527 12.8705 37.527H9.6905L8.6835 42.562H5L8.7895 23.5615ZM11.89 26.5825L10.3 34.5325C10.406 34.55 10.512 34.559 10.618 34.559C10.7415 34.559 10.8655 34.559 10.989 34.559C12.685 34.5765 14.0985 34.409 15.229 34.0555C16.3595 33.6845 17.1195 32.395 17.508 30.1865C17.826 28.3315 17.508 27.2625 16.554 26.98C15.6175 26.6975 14.443 26.565 13.0295 26.5825C12.8175 26.6 12.6145 26.609 12.42 26.609C12.2435 26.609 12.058 26.609 11.8635 26.609L11.89 26.5825Z" fill="white"/>
<path d="M25.547 18.499H29.204L28.1705 23.5605H31.4565C33.2585 23.596 34.601 23.967 35.4845 24.6735C36.3855 25.38 36.6505 26.723 36.2795 28.7015L34.504 37.526H30.794L32.49 29.099C32.6665 28.2155 32.6135 27.5885 32.331 27.2175C32.0485 26.8465 31.439 26.661 30.5025 26.661L27.561 26.6345L25.388 37.526H21.731L25.547 18.499Z" fill="white"/>
<path d="M40.2055 23.5615H47.3075C49.392 23.579 50.9025 24.18 51.839 25.3635C52.7755 26.547 53.0845 28.1635 52.7665 30.213C52.643 31.1495 52.369 32.068 51.945 32.969C51.5385 33.87 50.9735 34.6825 50.249 35.407C49.3655 36.3255 48.4205 36.9085 47.4135 37.156C46.4065 37.4035 45.364 37.527 44.2865 37.527H41.1065L40.0995 42.562H36.416L40.2055 23.5615ZM43.306 26.5825L41.716 34.5325C41.822 34.55 41.928 34.559 42.034 34.559C42.1575 34.559 42.2815 34.559 42.405 34.559C44.101 34.5765 45.5145 34.409 46.645 34.0555C47.7755 33.6845 48.5355 32.395 48.924 30.1865C49.242 28.3315 48.924 27.2625 47.97 26.98C47.0335 26.6975 45.859 26.565 44.4455 26.5825C44.2335 26.6 44.0305 26.609 43.836 26.609C43.6595 26.609 43.474 26.609 43.2795 26.609L43.306 26.5825Z" fill="white"/>
</svg>
