<svg width="60" height="60" viewBox="0 0 60 60" fill="none" xmlns="http://www.w3.org/2000/svg">
<rect width="60" height="60" rx="10" fill="#1D232A"/>
<path d="M30.554 8.72958C28.7722 8.73531 27.537 8.89228 26.044 9.1501C21.6348 9.91781 20.8316 11.53 20.8316 14.5011V19.0421H31.1441V21.3337H20.4397H15.4553C12.4349 21.3337 9.79146 22.7569 8.95386 26.168C8.0074 30.0833 7.965 32.5354 8.95386 36.6237C9.70438 39.6728 11.3578 41.9587 14.3794 41.9587H18.541V36.1104C18.541 32.7119 21.6188 29.3546 25.1456 29.3546H33.4369C36.3278 29.3546 39.166 27.221 39.166 24.3393V14.5011C39.166 11.7065 37.1505 9.61645 34.3329 9.1478C34.4028 9.14093 32.3208 8.7227 30.554 8.72958ZM24.8431 13.3129C25.7839 13.3129 26.5619 14.0886 26.5619 15.034C26.5619 15.9884 25.7839 16.7504 24.8431 16.7504C23.8841 16.7504 23.1244 15.9896 23.1244 15.034C23.1244 14.0921 23.8841 13.3129 24.8431 13.3129Z" fill="#0277BD"/>
<path d="M29.4436 52.2712C31.2254 52.2654 32.4606 52.1084 33.9536 51.8506C38.3628 51.0829 39.166 49.4707 39.166 46.4996V41.9587H28.8535V39.667H39.559H44.5434C47.5638 39.667 50.2073 38.2439 51.0449 34.8327C51.9913 30.9174 52.0337 28.4653 51.0449 24.377C50.2932 21.3279 48.6398 19.042 45.6182 19.042H41.4565V24.8903C41.4565 28.2889 38.3788 31.6462 34.852 31.6462H26.5607C23.6698 31.6462 20.8315 33.7797 20.8315 36.6615V46.4996C20.8315 49.2943 22.8471 51.3843 25.6647 51.8529C25.5948 51.8598 27.6768 52.278 29.4436 52.2712ZM35.1556 47.6878C34.2149 47.6878 33.4369 46.9121 33.4369 45.9668C33.4369 45.0123 34.2149 44.2503 35.1556 44.2503C36.1147 44.2503 36.8744 45.0112 36.8744 45.9668C36.8744 46.9087 36.1135 47.6878 35.1556 47.6878Z" fill="#FFC107"/>
</svg>
