<svg width="60" height="60" viewBox="0 0 60 60" fill="none" xmlns="http://www.w3.org/2000/svg">
<rect width="60" height="60" rx="10" fill="#1E2836"/>
<path d="M32 23H24C20.134 23 17 19.866 17 16C17 12.134 20.134 9 24 9H32V23Z" fill="#E64A19"/>
<path d="M31 37H24C20.134 37 17 33.866 17 30C17 26.134 20.134 23 24 23H31V37Z" fill="#7C4DFF"/>
<path d="M24 51C20.134 51 17 47.866 17 44C17 40.134 20.134 37 24 37H31V44C31 47.866 27.866 51 24 51Z" fill="#66BB6A"/>
<path d="M38 23H31V9H38C41.866 9 45 12.134 45 16C45 19.866 41.866 23 38 23Z" fill="#FF7043"/>
<path d="M38 37C41.866 37 45 33.866 45 30C45 26.134 41.866 23 38 23C34.134 23 31 26.134 31 30C31 33.866 34.134 37 38 37Z" fill="#29B6F6"/>
</svg>
