<svg width="60" height="60" viewBox="0 0 60 60" fill="none" xmlns="http://www.w3.org/2000/svg">
<rect width="60" height="60" rx="10" fill="#1E2836"/>
<path d="M9.87804 32.1198C8.70732 30.9491 8.70732 29.0509 9.87804 27.8802L27.8802 9.87804C29.0509 8.70732 30.9491 8.70732 32.1198 9.87804L50.1219 27.8802C51.2927 29.0509 51.2927 30.9491 50.1219 32.1198L32.1198 50.1219C30.9491 51.2927 29.0509 51.2927 27.8802 50.1219L9.87804 32.1198Z" fill="#EE513B"/>
<path d="M24.2233 13.5918L22.4004 15.4148L27.1087 20.1232C26.9182 20.5318 26.8119 20.9875 26.8119 21.4681C26.8119 22.8325 27.6691 23.9967 28.8744 24.4513V35.9692C27.6691 36.4239 26.8119 37.588 26.8119 38.9524C26.8119 40.7128 28.239 42.1399 29.9994 42.1399C31.7598 42.1399 33.1869 40.7128 33.1869 38.9524C33.1869 37.7155 32.4823 36.643 31.4526 36.1147V24.4671L35.9533 28.9678C35.7721 29.3682 35.6713 29.8126 35.6713 30.2806C35.6713 32.041 37.0984 33.4681 38.8588 33.4681C40.6192 33.4681 42.0463 32.041 42.0463 30.2806C42.0463 28.5202 40.6192 27.0931 38.8588 27.0931C38.5167 27.0931 38.1873 27.147 37.8783 27.2467L33.0445 22.413C33.1371 22.1145 33.1869 21.7971 33.1869 21.4681C33.1869 19.7077 31.7598 18.2806 29.9994 18.2806C29.6704 18.2806 29.3532 18.3304 29.0545 18.423L24.2233 13.5918Z" fill="white"/>
</svg>
