<svg width="60" height="60" viewBox="0 0 60 60" fill="none" xmlns="http://www.w3.org/2000/svg">
<rect width="60" height="60" rx="10" fill="#1E2836"/>
<circle cx="30.5" cy="31.5" r="18.5" fill="white"/>
<path d="M27.8 10.2C18.6 11.2 11.2 18.6 10.2 27.6C9.20002 37 14.6 45.4 22.8 48.6C23.4 48.8 24 48.4 24 47.6V44.4C24 44.4 23.2 44.6 22.2 44.6C19.4 44.6 18.2 42.2 18 40.8C17.8 40 17.4 39.4 16.8 38.8C16.2 38.6 16 38.6 16 38.4C16 38 16.6 38 16.8 38C18 38 19 39.4 19.4 40C20.4 41.6 21.6 42 22.2 42C23 42 23.6 41.8 24 41.6C24.2 40.2 24.8 38.8 26 38C21.4 37 18 34.4 18 30C18 27.8 19 25.6 20.4 24C20.2 23.6 20 22.6 20 21.2C20 20.4 20 19.2 20.6 18C20.6 18 23.4 18 26.2 20.6C27.2 20.2 28.6 20 30 20C31.4 20 32.8 20.2 34 20.6C36.6 18 39.6 18 39.6 18C40 19.2 40 20.4 40 21.2C40 22.8 39.8 23.6 39.6 24C41 25.6 42 27.6 42 30C42 34.4 38.6 37 34 38C35.2 39 36 40.8 36 42.6V47.8C36 48.4 36.6 49 37.4 48.8C44.8 45.8 50 38.6 50 30.2C50 18.2 39.8 8.79995 27.8 10.2Z" fill="black"/>
</svg>
