<svg width="60" height="60" viewBox="0 0 60 60" fill="none" xmlns="http://www.w3.org/2000/svg">
<rect width="60" height="60" rx="10" fill="#1E2836"/>
<path fill-rule="evenodd" clip-rule="evenodd" d="M13 10H40V10.2276C40.4692 10.0802 40.974 10 41.5 10C43.9853 10 46 11.7909 46 14C46 14.7286 45.7809 15.4117 45.398 16H50V48H18V22H13V10Z" fill="white"/>
<path d="M41 10C41 10.5523 39.8807 11 38.5 11C37.1193 11 36 10.5523 36 10C36 9.44772 37.1193 9 38.5 9C39.8807 9 41 9.44772 41 10Z" fill="white"/>
<path d="M17.4249 14.9743C18.7686 16.0659 19.2726 15.9826 21.7957 15.8142L45.5826 14.386C46.0869 14.386 45.6674 13.8827 45.4994 13.799L41.5487 10.9431C40.7919 10.3555 39.7833 9.68247 37.8506 9.85082L14.8178 11.5308C13.9778 11.6141 13.81 12.034 14.1445 12.3707L17.4249 14.9743ZM18.853 20.5177V45.5457C18.853 46.8906 19.5252 47.394 21.0381 47.3108L47.1797 45.7982C48.6933 45.715 48.862 44.7895 48.862 43.697V18.8371C48.862 17.7462 48.4425 17.1579 47.5157 17.2418L20.1974 18.8371C19.1893 18.9218 18.853 19.4261 18.853 20.5177ZM44.6601 21.8603C44.8277 22.617 44.6601 23.3729 43.902 23.458L42.6425 23.7089V42.186C41.5487 42.7738 40.5404 43.1098 39.7001 43.1098C38.3546 43.1098 38.0177 42.6897 37.0099 41.4305L28.7709 28.4964V41.0106L31.378 41.5988C31.378 41.5988 31.378 43.1098 29.2746 43.1098L23.476 43.4462C23.3076 43.1098 23.476 42.2708 24.0642 42.1025L25.5774 41.6833V25.1372L23.4764 24.9689C23.3079 24.2122 23.7275 23.1213 24.9052 23.0366L31.1258 22.6173L39.7001 35.7198V24.1289L37.5139 23.878C37.3461 22.953 38.0177 22.2813 38.8583 22.198L44.6601 21.8603ZM12.8839 9.26317L36.8417 7.49891C39.7839 7.24657 40.5407 7.4156 42.39 8.75886L50.0373 14.134C51.2994 15.0583 51.7199 15.3099 51.7199 16.3175V45.7982C51.7199 47.6455 51.0469 48.7383 48.6937 48.9053L20.8716 50.5857C19.1052 50.6698 18.2645 50.418 17.3394 49.2414L11.7076 41.9345C10.6985 40.5895 10.2788 39.5831 10.2788 38.4058V12.2017C10.2788 10.6908 10.952 9.4305 12.8839 9.26317Z" fill="black"/>
</svg>
