<svg width="60" height="60" viewBox="0 0 60 60" fill="none" xmlns="http://www.w3.org/2000/svg">
<g clip-path="url(#clip0_132_393)">
<rect x="8.6665" y="8.66699" width="43" height="44" fill="#9999FF"/>
<path d="M9.37451 0.833012C8.3667 0.9502 6.77295 1.41895 5.91748 1.84082C4.40576 2.61426 2.80029 3.98536 1.87451 5.32129C1.30029 6.16504 0.608887 7.7002 0.327637 8.79004L0.0581055 9.78614V30.001V50.2158L0.327637 51.2119C1.48779 55.5947 5.03857 58.6768 9.52686 59.1689C11.0972 59.3447 48.9019 59.3447 50.4722 59.1689C54.9604 58.6768 58.5112 55.5947 59.6714 51.2119L59.9409 50.2158V30.001V9.78614L59.6714 8.79004C58.5112 4.40723 54.9604 1.3252 50.4722 0.833012C49.1011 0.680669 10.7222 0.680669 9.37451 0.833012ZM25.1362 15.8799C26.5308 16.1025 27.2925 16.3369 28.3589 16.876C31.4761 18.4463 33.0815 21.0596 33.0698 24.5518C33.0698 28.583 30.9604 31.6885 27.3979 32.9541C25.9448 33.4697 24.6675 33.6455 22.0659 33.7158L19.687 33.7861V37.7822C19.687 39.9736 19.6401 41.8486 19.5933 41.9307C19.5112 42.0361 18.9019 42.0713 16.9214 42.0479L14.355 42.0127L14.3198 28.9229L14.2964 15.833L15.6089 15.7861C19.7808 15.6689 24.1284 15.7158 25.1362 15.8799ZM48.6323 24.3525V27.0244L47.2026 27.165C45.1284 27.3643 43.4526 27.8916 42.5737 28.6416L42.187 28.9697L42.1636 35.4854L42.1284 42.0127L39.48 42.0479C37.4058 42.0713 36.7964 42.0479 36.7026 41.9189C36.6089 41.8135 36.5737 38.8135 36.5503 31.9346L36.5386 22.0908L38.5659 22.0557C40.8628 22.0205 41.3198 22.0674 41.4839 22.3721C41.5425 22.501 41.6597 23.0752 41.7417 23.6611L41.8823 24.7275L42.4214 24.2119C44.0269 22.665 46.1479 21.7041 47.9644 21.6924L48.6323 21.6807V24.3525Z" fill="#00005B"/>
<path d="M19.687 24.7861V29.0635H21.3276C25.312 29.0635 27.187 27.9736 27.6558 25.4072C27.8901 24.1299 27.4331 22.6533 26.519 21.7744C25.5698 20.8604 24.2104 20.5088 21.5386 20.5088H19.687V24.7861Z" fill="#00005B"/>
</g>
<defs>
<clipPath id="clip0_132_393">
<rect width="60" height="60" fill="white"/>
</clipPath>
</defs>
</svg>
