<svg width="60" height="60" viewBox="0 0 60 60" fill="none" xmlns="http://www.w3.org/2000/svg">
<rect width="60" height="60" rx="10" fill="#1D232A"/>
<path fill-rule="evenodd" clip-rule="evenodd" d="M38.4661 15.6279L50.7371 25.7999L46.2751 34.7909L38.9251 32.7559H32.4941L38.4661 15.6279Z" fill="#26C6DA"/>
<path fill-rule="evenodd" clip-rule="evenodd" d="M36.431 15.234L26.981 9L11.559 15.431L9 42.6L23.372 51L27.244 46.472L26.062 22.256L36.431 15.234Z" fill="#66BB6A"/>
<path fill-rule="evenodd" clip-rule="evenodd" d="M41.944 20.484H27.375L40.237 9L41.944 20.484Z" fill="#9CCC65"/>
<path fill-rule="evenodd" clip-rule="evenodd" d="M51.0001 46.537L38.2031 50.934L21.1411 46.144L26.0631 22.256L28.0311 20.484L38.4661 19.5L37.4811 29.934L45.7501 26.719L51.0001 46.537Z" fill="#FFEE58"/>
<path fill-rule="evenodd" clip-rule="evenodd" d="M17 17H43V43H17V17Z" fill="#212121"/>
<path fill-rule="evenodd" clip-rule="evenodd" d="M20 39.0003H30V41.0003H20V39.0003ZM20.075 20.0003H24.708C27.433 20.0003 29 21.5333 29 23.8003C29 26.3333 26.956 27.6673 24.435 27.6673H22.527V31.0003H20.074L20.075 20.0003ZM26.479 23.9333C26.479 22.8663 25.73 22.2663 24.435 22.2663H22.527V25.6663H24.503C25.842 25.6673 26.479 24.8673 26.479 23.9333ZM30.819 25.5013C30.786 24.0333 31.355 22.6153 32.394 21.5763C33.432 20.5383 34.85 19.9693 36.319 20.0013C38.301 20.0013 39.516 20.6403 40.475 21.6643L39.004 23.3913C38.173 22.6243 37.341 22.1763 36.318 22.1763C34.528 22.1763 33.249 23.6473 33.249 25.5013C33.249 27.2913 34.528 28.8263 36.318 28.8263C37.533 28.8263 38.3 28.3143 39.132 27.6113L40.603 29.0823C39.515 30.2333 38.3 31.0003 36.254 31.0003C34.801 31.0003 33.409 30.4193 32.388 29.3853C31.367 28.3523 30.802 26.9533 30.819 25.5013Z" fill="white"/>
</svg>
