<svg width="60" height="60" viewBox="0 0 60 60" fill="none" xmlns="http://www.w3.org/2000/svg">
<rect width="60" height="60" rx="10" fill="#364150"/>
<path d="M50.0002 17.1104V42.8904C50.0002 44.1604 49.2102 45.2904 48.0202 45.7104L39.2002 49.8504L40.0002 39.0004V21.0004L39.2002 10.1504L48.0202 14.2904C49.2102 14.7104 50.0002 15.8404 50.0002 17.1104Z" fill="#29B6F6"/>
<path d="M14.9999 39.8963L39.9999 21.0003V11.3533C39.9999 10.1553 38.5179 9.59534 37.7249 10.4933L10.6579 35.2393C9.75792 36.0693 9.80892 37.5063 10.7649 38.2713C10.7649 38.2713 12.0889 39.5033 12.5679 39.8453C13.3039 40.3703 14.2709 40.4303 14.9999 39.8963Z" fill="#0277BD"/>
<path d="M14.9999 20.1042L39.9999 39.0002V48.6472C39.9999 49.8452 38.5179 50.4052 37.7249 49.5072L10.6579 24.7612C9.75792 23.9312 9.80892 22.4942 10.7649 21.7292C10.7649 21.7292 12.0889 20.4972 12.5679 20.1552C13.3039 19.6302 14.2709 19.5702 14.9999 20.1042Z" fill="#0288D1"/>
</svg>
