<svg width="60" height="60" viewBox="0 0 60 60" fill="none" xmlns="http://www.w3.org/2000/svg">
<rect width="60" height="60" rx="10" fill="#1E2836"/>
<path fill-rule="evenodd" clip-rule="evenodd" d="M19 12H49V16V22V43H45V47H42.8462C42.6836 47.2629 42.3937 47.5197 41.985 47.7656C41.9949 47.843 42 47.9211 42 48C42 49.6569 39.7614 51 37 51C36.0893 51 35.2354 50.8539 34.5 50.5987C34.0587 50.8539 33.5464 51 33 51C32.084 51 31.2638 50.5894 30.7135 49.9423C29.8592 49.9789 28.9873 49.9984 28.1069 49.9999C24.1473 50.0065 20.3371 49.6475 17.5074 49.0012C15.1416 48.4609 13.6216 47.7564 13.1538 47H10V20H14V16H19V12Z" fill="white"/>
<path d="M18 11C17.5667 11.4333 17.3333 12.1 17.3333 13C17.3333 14.2667 17.2667 14.3333 16.3333 14.3333C14.2333 14.3333 13 15.5667 13 17.6667C13 18.6 12.9333 18.6667 11.6667 18.6667C10.7667 18.6667 10.1 18.9 9.66667 19.3333C9.03333 19.9667 9 20.4333 9 33.9333V47.8667L21.6 49.9333C39.5333 52.9 42.3333 52.8333 42.3333 49.3667C42.3333 48.1 42.3333 48.1 43.8667 47.9C45.8 47.7 46.3667 47.1333 46.5667 45.2C46.7667 43.6667 46.7667 43.6667 48.0333 43.6667C48.9 43.6667 49.5667 43.4333 50 43C50.6333 42.3667 50.6667 41.9 50.6667 27.0667V11.7667L49.9 11.0667C49.1333 10.3333 49.0667 10.3333 33.9 10.3333C19.1 10.3333 18.6333 10.3667 18 11ZM48.9333 27.0667L49 42L48.1333 42.2C47.6667 42.3333 47.1667 42.3 47 42.1333C46.8333 41.9667 46.6333 35.9333 46.6 28.7667C46.5 16.7333 46.4667 15.6333 45.9 15.1C45.3667 14.5333 44.2667 14.5 32.1667 14.4L19 14.3V13.1667V12L33.9333 12.0667L48.8333 12.1667L48.9333 27.0667ZM44.8333 31.1667V46.1667H43.6667H42.5L42.4 33.0333C42.3333 21.3667 42.2667 19.8 41.7667 19.2667C41.2667 18.7 40.3667 18.6667 28.1 18.6667C13.8333 18.6667 14.3333 18.7333 14.8 16.8333L15 16L29.9333 16.0667L44.8333 16.1667V31.1667ZM40.3667 20.3333C40.9667 20.6667 41 21.2 41 35.1C41 43.0333 40.8667 49.7 40.7 49.9333C40.5 50.3 39.5 50.3667 36.4667 50.2667L32.5 50.1667L24.5667 45.7667C19.7 43.0333 16.3 41.3333 15.7 41.3333C15.0333 41.3333 14.2667 41.8333 12.9 43.1667C11.8667 44.1667 10.9333 45 10.8333 45C10.7333 45 10.6667 39.4667 10.6667 32.7C10.6667 23.1667 10.7667 20.3667 11.1 20.2333C11.9333 19.8667 39.7 20 40.3667 20.3333ZM21.5333 45.9C24.4 47.5333 26.5333 48.8667 26.2667 48.9333C25.6667 49.0333 12.3333 46.8 12.0667 46.5333C11.7667 46.2 15.0667 43 15.7333 43C16.0333 43 18.6667 44.3 21.5333 45.9Z" fill="black"/>
<path d="M14.3335 24.3003C14.3335 24.5003 15.4668 26.5003 16.8335 28.767L19.3335 32.9337V36.3003V39.667H20.5002H21.6668V36.467V33.3003L24.3335 28.8003C25.8002 26.3337 27.0002 24.267 27.0002 24.167C27.0002 24.067 26.4335 24.0003 25.7335 24.0003C24.7002 24.0003 24.3668 24.167 23.9668 24.9003C23.6668 25.4337 22.8002 26.9337 22.0002 28.3003L20.6002 30.7337L18.6335 27.367C16.7335 24.1337 16.6002 24.0003 15.5002 24.0003C14.8668 24.0003 14.3335 24.1337 14.3335 24.3003Z" fill="black"/>
<path d="M29.5665 27.5002C26.5998 28.2668 24.8331 30.8002 25.0665 34.0335C25.4331 39.0002 30.5331 41.6002 34.6665 38.8668C36.5998 37.6002 37.4331 35.7335 37.2665 33.1335C37.1665 31.4002 36.9665 30.8002 36.0998 29.7668C34.2665 27.5002 32.2665 26.8002 29.5665 27.5002ZM33.3665 30.1002C35.5331 31.5668 35.7998 34.8335 33.8998 36.6002C30.6998 39.6335 25.8998 36.1335 27.5331 32.0002C28.5331 29.4668 31.1665 28.6335 33.3665 30.1002Z" fill="black"/>
</svg>
